<svg version="1" xmlns="http://www.w3.org/2000/svg" width="188.5" height="48" viewBox="0 0 188.5 48"><path fill-rule="evenodd" clip-rule="evenodd" fill="#FFF" d="M55.643 0H23.41S8.37 11.013 3.5 23.53c0 0 27.416-.842 28.442 24.47 0 0 5.74-32.046 23.7-48zm.948 21.647c-9.11 5.02-19.907 25.412-19.907 25.412 15.06-16.708 28.442-22.59 28.442-22.59l-8.533-2.824zm4.74-6.588l-12.323-1.884c-9.243 9.136-14.22 33.883-14.22 33.883 7.838-19.988 26.545-32 26.545-32z"/><path d="M95.224 33.714c.412.89.753 1.8 1.023 2.736.27.937.468 1.88.595 2.832-1.65.604-3.134 1-4.45 1.19-1.317.19-2.737.285-4.26.285-2.697 0-5.06-.437-7.09-1.31-2.032-.872-3.737-2.094-5.117-3.664-1.38-1.57-2.42-3.434-3.117-5.592-.698-2.155-1.047-4.503-1.047-7.042 0-2.538.367-4.894 1.097-7.067.73-2.172 1.785-4.052 3.165-5.64 1.38-1.585 3.078-2.822 5.093-3.71 2.014-.89 4.307-1.334 6.877-1.334 1.523 0 2.927.095 4.212.286 1.285.19 2.672.588 4.165 1.19-.065.952-.256 1.88-.57 2.784-.32.904-.67 1.817-1.05 2.737-1.11-.38-2.094-.65-2.95-.808-.857-.16-1.873-.238-3.047-.238-3.045 0-5.386.992-7.02 2.975-1.634 1.982-2.45 4.925-2.45 8.827 0 7.74 3.283 11.61 9.85 11.61 1.174 0 2.206-.08 3.095-.237.886-.158 1.886-.427 2.997-.808zm6.804-27.746h19.418c.19.952.285 1.92.285 2.903a15.31 15.31 0 0 1-.283 3h-12.47v7.424h9.9c.19 1.016.285 2 .285 2.95 0 1.017-.095 2.017-.285 3h-9.898v9.042h12.8c.19.952.285 1.92.285 2.903a15.29 15.29 0 0 1-.285 2.997h-19.752V5.967zm25.272 0h19.418c.19.952.285 1.92.285 2.903a15.31 15.31 0 0 1-.285 3h-12.47v8.043h9.9c.19 1.016.285 2 .285 2.95a15.78 15.78 0 0 1-.286 3h-9.898v14.324c-1.21.19-2.35.285-3.43.285-1.174 0-2.35-.094-3.52-.284V5.968zm24.128 0c1.174-.19 2.332-.285 3.475-.285s2.315.095 3.52.285v34.22c-1.205.19-2.362.284-3.473.284-1.175 0-2.35-.095-3.522-.285V5.967zm19.894 18.372a20.455 20.455 0 0 1-2.903-1.358 8.56 8.56 0 0 1-2.19-1.76c-.605-.683-1.07-1.5-1.405-2.452-.333-.952-.5-2.094-.5-3.426 0-1.618.278-3.046.833-4.284a8.512 8.512 0 0 1 2.355-3.117c1.015-.84 2.236-1.475 3.664-1.903 1.427-.43 3.03-.643 4.806-.643 1.618 0 3.134.143 4.546.428a34.7 34.7 0 0 1 4.45 1.237c-.19 1.84-.7 3.65-1.524 5.426-.478-.19-.96-.38-1.453-.57s-1.016-.35-1.57-.477a17.965 17.965 0 0 0-1.88-.307c-.698-.08-1.49-.12-2.38-.12-.54 0-1.087.048-1.642.144-.555.095-1.054.27-1.5.524s-.807.627-1.093 1.12c-.284.49-.428 1.134-.428 1.927 0 .635.11 1.166.333 1.594.222.43.523.794.904 1.095.38.302.81.556 1.284.762.478.207.953.404 1.43.595l2.854 1.096c1.206.476 2.3.968 3.284 1.476s1.817 1.135 2.5 1.88c.682.745 1.213 1.65 1.594 2.712.38 1.063.57 2.372.57 3.927 0 1.62-.293 3.094-.88 4.427s-1.436 2.475-2.546 3.427-2.482 1.697-4.116 2.236c-1.635.54-3.515.81-5.64.81-1.047 0-1.983-.032-2.81-.096a20.85 20.85 0 0 1-4.567-.857c-.73-.222-1.492-.49-2.284-.81.095-.92.27-1.88.523-2.88.253-.998.555-2.005.904-3.02 1.332.54 2.585.944 3.76 1.213 1.173.27 2.427.405 3.76.405 2 0 3.57-.373 4.71-1.12 1.144-.744 1.715-1.88 1.715-3.4 0-.763-.136-1.397-.404-1.905a4.166 4.166 0 0 0-1.05-1.284 6.205 6.205 0 0 0-1.45-.88c-.54-.24-1.095-.47-1.666-.69l-2.902-1.098z" fill="#FFF"/></svg>